<?xml version="1.0" encoding="iso-8859-1"?>
<!-- Generator: Adobe Illustrator 19.0.0, SVG Export Plug-In . SVG Version: 6.00 Build 0)  -->
<svg version="1.1" id="Layer_1" xmlns="http://www.w3.org/2000/svg" xmlns:xlink="http://www.w3.org/1999/xlink" x="0px" y="0px"
	 viewBox="0 0 512 512" style="enable-background:new 0 0 512 512; fill:#ffffff;" xml:space="preserve">
<g>
	<g>
		<path d="M444.082,292.571h-69.494l49.139-49.139c12.828-12.827,19.893-29.883,19.893-48.025c0-18.141-7.065-35.198-19.893-48.027
			l-59.108-59.108c-26.482-26.482-69.57-26.482-96.05,0l-49.141,49.139V67.918C219.429,30.468,188.96,0,151.51,0H67.918
			C30.468,0,0,30.468,0,67.918V512h444.082c37.45,0,67.918-30.468,67.918-67.918V360.49C512,323.04,481.532,292.571,444.082,292.571
			z M188.082,480.653H31.347V67.918c0-20.166,16.406-36.571,36.571-36.571h83.592c20.166,0,36.571,16.406,36.571,36.571V480.653z
			 M342.454,110.437l59.108,59.108c6.908,6.908,10.711,16.091,10.711,25.861c0,8.004-2.558,15.614-7.28,21.902L294.696,107.012
			C309.01,96.297,329.448,97.434,342.454,110.437z M219.429,238.623l53.948,53.948h-53.948V238.623z M303.02,480.653h-83.592
			V323.918h83.592V480.653z M317.706,292.571l-98.278-98.279v-12.55l52.833-52.833l110.829,110.829l-52.834,52.833H317.706z
			 M417.959,480.653h-83.592V323.918h83.592V480.653z M480.653,444.082c0,18.391-13.648,33.649-31.347,36.192V324.298
			c17.698,2.544,31.347,17.801,31.347,36.192V444.082z"/>
	</g>
</g>
<g>
	<g>
		<circle cx="109.714" cy="402.286" r="15.673"/>
	</g>
</g>
<g>
</g>
<g>
</g>
<g>
</g>
<g>
</g>
<g>
</g>
<g>
</g>
<g>
</g>
<g>
</g>
<g>
</g>
<g>
</g>
<g>
</g>
<g>
</g>
<g>
</g>
<g>
</g>
<g>
</g>
</svg>
